<?xml version="1.0" encoding="UTF-8"?>
<svg id="Layer_1" data-name="Layer 1" xmlns="http://www.w3.org/2000/svg" viewBox="0 0 1647.47 592.44">
  <defs>
    <style>
      .cls-1, .cls-2, .cls-3 {
        fill: #fff;
      }

      .cls-2 {
        font-family: FuturaBT-Heavy, 'Futura Hv BT';
        font-size: 444.5px;
        font-weight: 800;
      }

      .cls-3 {
        font-family: FuturaBT-Light, 'Futura Lt BT';
        font-size: 105.72px;
        font-weight: 300;
        letter-spacing: .15em;
      }
    </style>
  </defs>
  <path class="cls-1" d="m1.31,592.28L.03,512.62l.64,39.83-.67-39.83c55.38-.97,219.56-19.73,246.69-90.76,18.45-48.31-29.02-128.3-133.67-225.23l54.14-58.44c135.83,125.82,186.17,227.94,153.92,312.2C269.87,584.15,28.64,591.85,1.31,592.28Z"/>
  <path class="cls-1" d="m162.95,453.73C27.4,327.62-22.73,225.39,9.71,141.2,61.2,7.55,302.45.38,329.79,0l1.1,79.66-.55-39.83.58,39.83c-55.38.85-219.6,19.25-246.88,90.22-18.55,48.27,28.75,128.36,133.18,225.52l-54.27,58.33Z"/>
  <text class="cls-2" transform="translate(363.45 453.74)"><tspan x="0" y="0">Genio</tspan></text>
  <text class="cls-3" transform="translate(1166.56 567.5)"><tspan x="0" y="0">consults</tspan></text>
</svg>